<svg xmlns="http://www.w3.org/2000/svg" viewBox="0 0 512 512">
  <g>
    <path d="M256 16C123 16 16 123 16 256s107 240 240 240 240-107 240-240S389 16 256 16zm0 32c114.7 0 208 93.3 208 208s-93.3 208-208 208S48 370.7 48 256 141.3 48 256 48zm0 64a32 32 0 00-32 32v80h-80a32 32 0 000 64h80v80a32 32 0 0064 0v-80h80a32 32 0 000-64h-80v-80a32 32 0 00-32-32z" fill="#000000"/>
    <path d="M160 400h192c8.8 0 16 7.2 16 16s-7.2 16-16 16H160c-8.8 0-16-7.2-16-16s7.2-16 16-16z" fill="#000000"/>
    <path d="M128 448h256c8.8 0 16 7.2 16 16s-7.2 16-16 16H128c-8.8 0-16-7.2-16-16s7.2-16 16-16z" fill="#000000"/>
    <circle cx="256" cy="256" r="32" fill="#ffaa00"/>
    <path d="M272 256c0 8.8-7.2 16-16 16s-16-7.2-16-16 7.2-16 16-16 16 7.2 16 16z" fill="#ffaa00"/>
  </g>
</svg>
